:FULLY-SPECIFIED
:FORCE-ALL-JOINTS-BE-3DOF
:DEGREES
1020
root 0.245668 13.5564 -35.3871 12.3173 -28.028 -17.7477
lfemur -69.6397 35.5247 -3.69569
ltibia 81.0878 0 0
lfoot -11.7628 -9.07243 -0.0101733
ltoes -4.71235 0 0
rfemur 9.75564 -8.88133 9.16675
rtibia 36.6546 0 0
rfoot -22.7254 -26.1489 0.000124175
rtoes -31.6147 0 0
lowerback 10.4784 -0.94596 5.84337
upperback -1.72921 0.0296439 8.25366
thorax -7.78292 -0.0796901 5.5599
lowerneck -4.59238 8.30883 3.42479
upperneck 7.72222 10.9632 -1.19489
head 3.5911 5.48366 -0.459445
lclavicle -4.25393e-14 -2.25176e-14 6.79772e-30
lhumerus 80.7555 -26.2908 27.5709
lradius 92.2051 0 0
lwrist 12.9986 0 0
lhand -34.2049 32.9421 0.0287189
lfingers 7.12502 0 0
lthumb -7.37694 62.775 0.0287816
rclavicle -4.25393e-14 -2.25176e-14 6.79772e-30
rhumerus -77.4147 22.7209 -95.0003
rradius 112.041 0 0
rwrist -63.2816 0 0
rhand -10.0782 -25.4268 -0.00149742
rfingers 7.12502 0 0
rthumb 15.9083 -54.7931 -0.00135759
1021
root 0.245029 13.5526 -35.3791 12.3157 -28.0455 -17.7313
lfemur -69.7086 35.6109 -3.763
ltibia 81.2899 0 0
lfoot -11.953 -9.00123 -0.00970696
ltoes -4.90261 0 0
rfemur 9.85027 -8.85709 9.08897
rtibia 36.5867 0 0
rfoot -22.7159 -26.1584 0.000112792
rtoes -31.5852 0 0
lowerback 10.4322 -0.92806 5.77149
upperback -1.7503 0.0401826 8.2324
thorax -7.77934 -0.0715186 5.57431
lowerneck -4.62965 8.31018 3.42217
upperneck 7.74727 10.962 -1.16767
head 3.60488 5.48379 -0.44798
lclavicle -4.44829e-14 -1.72385e-14 6.51946e-30
lhumerus 80.982 -23.601 27.7206
lradius 92.3235 0 0
lwrist 12.3721 0 0
lhand -34.4132 32.5805 0.0286026
lfingers 7.12502 0 0
lthumb -7.57801 62.4073 0.0286254
rclavicle -4.44829e-14 -1.72385e-14 6.51946e-30
rhumerus -77.4401 22.7649 -95.0204
rradius 112.015 0 0
rwrist -63.2913 0 0
rhand -10.1033 -25.3707 -0.00136247
rfingers 7.12502 0 0
rthumb 15.8842 -54.7389 -0.00123559
1022
root 0.24439 13.5487 -35.371 12.314 -28.065 -17.7142
lfemur -69.7852 35.705 -3.83707
ltibia 81.5128 0 0
lfoot -12.1604 -8.92326 -0.00886845
ltoes -5.10797 0 0
rfemur 9.95383 -8.83063 9.00326
rtibia 36.5123 0 0
rfoot -22.7051 -26.1676 9.78923e-05
rtoes -31.5544 0 0
lowerback 10.3829 -0.909622 5.69301
upperback -1.77319 0.0504849 8.21097
thorax -7.77585 -0.0631565 5.59223
lowerneck -4.67017 8.31196 3.41952
upperneck 7.77595 10.9612 -1.13843
head 3.62041 5.48414 -0.435597
lclavicle -4.66377e-14 -1.1557e-14 5.98649e-30
lhumerus 81.2784 -20.6848 27.8682
lradius 92.5119 0 0
lwrist 11.7085 0 0
lhand -34.6487 32.1976 0.0272135
lfingers 7.12502 0 0
lthumb -7.8053 62.0177 0.027201
rclavicle -4.66377e-14 -1.1557e-14 5.98649e-30
rhumerus -77.468 22.8131 -95.041
rradius 111.989 0 0
rwrist -63.2972 0 0
rhand -10.1285 -25.3118 -0.00118555
rfingers 7.12502 0 0
rthumb 15.8599 -54.682 -0.00107548
1023
root 0.243751 13.5449 -35.363 12.3122 -28.0868 -17.6966
lfemur -69.8699 35.8075 -3.91827
ltibia 81.7573 0 0
lfoot -12.386 -8.83819 -0.00757681
ltoes -5.32904 0 0
rfemur 10.0667 -8.8018 8.90927
rtibia 36.431 0 0
rfoot -22.6929 -26.1764 7.93411e-05
rtoes -31.5224 0 0
lowerback 10.3301 -0.890663 5.60764
upperback -1.79797 0.0605072 8.18942
thorax -7.77246 -0.0546108 5.61389
lowerneck -4.71409 8.3142 3.41685
upperneck 7.80847 10.9607 -1.10706
head 3.63778 5.48474 -0.42226
lclavicle -4.90138e-14 -5.45749e-15 5.13978e-30
lhumerus 81.6476 -17.5329 28.0199
lradius 92.7748 0 0
lwrist 11.0068 0 0
lhand -34.9127 31.7926 0.0241498
lfingers 7.12502 0 0
lthumb -8.06015 61.6056 0.0241112
rclavicle -4.90138e-14 -5.45749e-15 5.13978e-30
rhumerus -77.4983 22.8659 -95.0622
rradius 111.963 0 0
rwrist -63.2991 0 0
rhand -10.1539 -25.2501 -0.000963738
rfingers 7.12502 0 0
rthumb 15.8354 -54.6223 -0.000874552
1024
root 0.243113 13.541 -35.355 12.3103 -28.111 -17.6784
lfemur -69.9632 35.9186 -4.00696
ltibia 82.0246 0 0
lfoot -12.6304 -8.74574 -0.00573989
ltoes -5.56643 0 0
rfemur 10.1893 -8.77048 8.80663
rtibia 36.3426 0 0
rfoot -22.6794 -26.1848 5.6978e-05
rtoes -31.4892 0 0
lowerback 10.2738 -0.871203 5.5151
upperback -1.8247 0.0702058 8.16779
thorax -7.76918 -0.0458882 5.63951
lowerneck -4.76155 8.31693 3.41415
upperneck 7.84504 10.9606 -1.07351
head 3.65709 5.4856 -0.40793
lclavicle -5.16216e-14 1.07568e-15 3.91211e-30
lhumerus 82.0934 -14.1364 28.1832
lradius 93.1171 0 0
lwrist 10.2659 0 0
lhand -35.2066 31.3651 0.0189517
lfingers 7.12502 0 0
lthumb -8.34393 61.1703 0.0189022
rclavicle -5.16216e-14 1.07568e-15 3.91211e-30
rhumerus -77.5314 22.9233 -95.0839
rradius 111.938 0 0
rwrist -63.2967 0 0
rhand -10.1794 -25.1856 -0.000694113
rfingers 7.12502 0 0
rthumb 15.8109 -54.5597 -0.000630102
1025
root 0.242474 13.5372 -35.347 12.3082 -28.1376 -17.6595
lfemur -70.0654 36.0388 -4.10355
ltibia 82.3156 0 0
lfoot -12.8943 -8.6456 -0.00325341
ltoes -5.82073 0 0
rfemur 10.322 -8.73652 8.695
rtibia 36.2467 0 0
rfoot -22.6644 -26.1926 3.06095e-05
rtoes -31.4547 0 0
lowerback 10.2139 -0.851264 5.41507
upperback -1.85345 0.0795371 8.14612
thorax -7.76602 -0.0369959 5.66929
lowerneck -4.81268 8.32019 3.41144
upperneck 7.88583 10.9609 -1.03769
head 3.67842 5.48672 -0.39257
lclavicle -5.44713e-14 8.05806e-15 2.22741e-30
lhumerus 82.6207 -10.4861 28.3668
lradius 93.5434 0 0
lwrist 9.48465 0 0
lhand -35.5319 30.9145 0.0110977
lfingers 7.12502 0 0
lthumb -8.65797 60.7113 0.0110587
rclavicle -5.44713e-14 8.05806e-15 2.22741e-30
rhumerus -77.5671 22.9855 -95.1061
rradius 111.914 0 0
rwrist -63.2897 0 0
rhand -10.205 -25.1181 -0.000373807
rfingers 7.12502 0 0
rthumb 15.7862 -54.4943 -0.00033946
1026
root 0.241835 13.5333 -35.339 372.306 -28.1668 342.36
lfemur -70.1772 36.1683 -4.20844
ltibia 82.6312 0 0
lfoot -13.1786 -8.53747 0
ltoes -6.09254 0 0
rfemur 10.4651 -8.69976 8.57401
rtibia 36.1431 0 0
rfoot -22.6479 -26.2 0
rtoes -31.419 0 0
lowerback 10.1503 -0.830868 5.30728
upperback -1.88432 0.0884574 8.12446
thorax -7.76301 -0.0279407 5.70346
lowerneck -4.86763 8.32399 3.40872
upperneck 7.93106 10.9617 -0.999513
head 3.70187 5.48813 -0.376144
lclavicle -5.7573e-14 1.55052e-14 0
lhumerus 83.2364 -6.57342 28.5815
lradius 94.0584 0 0
lwrist 8.66203 0 0
lhand -35.89 30.44 0
lfingers 7.12502 0 0
lthumb -9.00363 60.2279 0
rclavicle -5.7573e-14 1.55052e-14 0
rhumerus -77.6058 23.0529 -95.1289
rradius 111.89 0 0
rwrist -63.2778 0 0
rhand -10.2306 -25.0477 0
rfingers 7.12502 0 0
rthumb 15.7616 -54.4259 0
1027
root 0.241781 13.5298 -35.3349 12.3137 -28.1752 -17.6239
lfemur -70.201 36.1651 -4.22533
ltibia 82.695 0 0
lfoot -13.2457 -8.3992 -0.00269365
ltoes -6.31778 0 0
rfemur 10.4713 -8.69772 8.53995
rtibia 36.1356 0 0
rfoot -22.6253 -26.2214 -0.000299284
rtoes -31.4456 0 0
lowerback 10.1566 -0.820253 5.28279
upperback -1.88435 0.0992271 8.10572
thorax -7.76698 -0.0218171 5.69488
lowerneck -4.8806 8.32063 3.40271
upperneck 7.91893 10.9563 -0.990584
head 3.69898 5.4856 -0.372333
lclavicle -5.63967e-14 1.71731e-14 -9.97586e-31
lhumerus 83.2629 -5.96599 28.7212
lradius 93.9494 0 0
lwrist 8.57018 0 0
lhand -35.9125 30.376 -0.00180404
lfingers 7.12502 0 0
lthumb -9.02535 60.1632 -0.00176619
rclavicle -5.63967e-14 1.71731e-14 -9.97586e-31
rhumerus -77.6037 23.0548 -95.1379
rradius 111.873 0 0
rwrist -63.315 0 0
rhand -10.2284 -25.0533 -5.50375e-05
rfingers 7.12502 0 0
rthumb 15.7637 -54.4314 -5.12019e-05
